#N canvas 754 158 560 521 12;
#X obj 125 15 notein;
#X obj 38 199 outlet;
#X obj 38 145 expr pow(1.059463094359 \, $f1);
#X obj 38 172 expr 440 * $f1;
#X obj 32 77 - 36;
#X floatatom 159 61 5 0 0 0 - - -;
#X obj 256 50 > 5;
#X floatatom 289 100 5 0 0 0 - - -;
#X obj 311 164 bng 15 250 50 0 empty empty empty 17 7 0 10 -262144
-1 -1;
#X obj 145 92 outlet;
#X connect 0 0 4 0;
#X connect 0 1 5 0;
#X connect 0 1 6 0;
#X connect 0 1 9 0;
#X connect 2 0 3 0;
#X connect 3 0 1 0;
#X connect 4 0 2 0;
#X connect 6 0 7 0;
#X connect 7 0 8 0;
#X coords 0 -1 1 1 85 60 2 0 0;
