#N canvas 140 224 608 512 12;
#X obj 5 199 *~;
#X obj 5 6 vsl 15 120 0 1 0 0 empty empty empty 0 -9 0 10 -204800 -1
-1 0 1;
#X obj 26 6 vu 10 120 empty empty -1 -8 0 10 -66577 -1 1 0;
#X obj 5 160 inlet~;
#X obj 145 439 outlet~;
#X obj 38 224 env~;
#X obj 37 258 - 100;
#X obj 71 6 vsl 15 120 0 1 0 0 empty empty empty 0 -9 0 10 -204800
-1 -1 0 1;
#X obj 92 6 vu 10 120 empty empty -1 -8 0 10 -66577 -1 1 0;
#X obj 137 6 vsl 15 120 0 1 0 0 empty empty empty 0 -9 0 10 -204800
-1 -1 0 1;
#X obj 158 6 vu 10 120 empty empty -1 -8 0 10 -66577 -1 1 0;
#X obj 204 6 vsl 15 120 0 1 0 0 empty empty empty 0 -9 0 10 -204800
-1 -1 0 1;
#X obj 225 6 vu 10 120 empty empty -1 -8 0 10 -66577 -1 1 0;
#X obj 74 199 *~;
#X obj 74 160 inlet~;
#X obj 107 224 env~;
#X obj 106 258 - 100;
#X obj 139 200 *~;
#X obj 139 161 inlet~;
#X obj 172 225 env~;
#X obj 171 259 - 100;
#X obj 210 199 *~;
#X obj 210 160 inlet~;
#X obj 243 224 env~;
#X obj 242 258 - 100;
#X connect 0 0 4 0;
#X connect 0 0 5 0;
#X connect 1 0 0 1;
#X connect 3 0 0 0;
#X connect 5 0 6 0;
#X connect 6 0 2 0;
#X connect 7 0 13 1;
#X connect 9 0 17 1;
#X connect 11 0 21 1;
#X connect 13 0 15 0;
#X connect 13 0 4 0;
#X connect 14 0 13 0;
#X connect 15 0 16 0;
#X connect 16 0 8 0;
#X connect 17 0 19 0;
#X connect 17 0 4 0;
#X connect 18 0 17 0;
#X connect 19 0 20 0;
#X connect 20 0 10 0;
#X connect 21 0 23 0;
#X connect 21 0 4 0;
#X connect 22 0 21 0;
#X connect 23 0 24 0;
#X connect 24 0 12 0;
#X coords 0 -1 1 1 268 135 2 0 0;
