#N canvas 116 292 623 448 12;
#X obj 247 76 metro 100;
#X obj 247 49 tgl 15 1 empty empty empty 17 7 0 10 -262144 -1 -1 1
1;
#N canvas 0 22 450 278 (subpatch) 0;
#X array \$0-array 300 float 0;
#X coords 0 1 299 -1 150 100 1 0 0;
#X restore 8 19 graph;
#X obj 192 18 inlet~;
#X obj 192 109 tabwrite~ \$0-array;
#X obj 11 124 hsl 145 15 1440 44 1 0 empty empty empty -2 -8 0 10 -204800
-1 -1 0 1;
#X obj 44 206 s \$0-array;
#X msg 44 178 resize \$1;
#X connect 0 0 4 0;
#X connect 1 0 0 0;
#X connect 3 0 4 0;
#X connect 5 0 7 0;
#X connect 7 0 6 0;
#X coords 0 -1 1 1 166 146 2 0 0;
