#N canvas 143 182 670 663 12;
#X obj 31 113 hradio 15 1 1 3 empty empty empty 0 -8 0 10 -262144 -1
-1 0;
#X obj 223 519 outlet~;
#X obj 6 340 *~;
#X obj 5 316 == 0;
#X obj 129 313 == 1;
#X obj 129 334 *~;
#X obj 168 338 -~ 0.5;
#X obj 168 362 *~ 2;
#X obj 276 312 == 2;
#X obj 276 335 *~;
#X obj 316 312 phasor~;
#X obj 372 341 phasor~;
#X obj 414 312 + 0.5;
#X msg 378 312 0;
#X obj 378 286 loadbang;
#X obj 316 336 -~;
#X obj 316 361 *~ 2;
#X obj 44 316 osc~;
#X obj 168 313 phasor~;
#X obj 360 91 inlet~;
#X connect 0 0 4 0;
#X connect 0 0 3 0;
#X connect 0 0 8 0;
#X connect 2 0 1 0;
#X connect 3 0 2 1;
#X connect 4 0 5 1;
#X connect 5 0 1 0;
#X connect 6 0 7 0;
#X connect 7 0 5 0;
#X connect 8 0 9 1;
#X connect 9 0 1 0;
#X connect 10 0 15 0;
#X connect 11 0 15 1;
#X connect 12 0 11 1;
#X connect 13 0 10 1;
#X connect 13 0 12 0;
#X connect 14 0 13 0;
#X connect 15 0 16 0;
#X connect 16 0 9 0;
#X connect 17 0 2 0;
#X connect 18 0 6 0;
#X connect 19 0 17 0;
#X connect 19 0 10 0;
#X connect 19 0 11 0;
#X connect 19 0 18 0;
#X coords 0 -1 1 1 250 150 2 0 0;
