#N canvas 720 23 720 855 12;
#X obj 116 15 inlet;
#X msg 116 39 1;
#X obj 116 64 +;
#X obj 147 64 int;
#X floatatom 10 9 5 0 0 0 - - -;
#X obj 116 92 mod 12;
#X obj 53 432 outlet;
#X obj 53 378 expr pow(1.059463094359 \, $f1);
#X obj 53 405 expr 440 * $f1;
#X obj 21 215 expr $f1 + $f2;
#X floatatom 10 33 5 0 0 0 - - -;
#X obj 21 239 expr $f1 * $f2;
#X obj 21 192 expr $f1 % $f2;
#X floatatom 11 60 5 0 0 0 - - -;
#X connect 0 0 1 0;
#X connect 1 0 2 0;
#X connect 2 0 3 0;
#X connect 2 0 5 0;
#X connect 3 0 2 1;
#X connect 4 0 9 1;
#X connect 5 0 12 0;
#X connect 7 0 8 0;
#X connect 8 0 6 0;
#X connect 9 0 11 0;
#X connect 10 0 11 1;
#X connect 11 0 7 0;
#X connect 12 0 9 0;
#X connect 13 0 12 1;
#X coords 0 -1 1 1 85 85 2 0 0;
