#N canvas 104 23 719 855 12;
#X obj 271 634 dac~;
#X obj 74 554 modules/oscilloscope;
#X obj 461 489 modules/oscillator;
#X obj 270 378 modules/channel;
#X obj 452 136 modules/clock;
#X obj 461 276 modules/sequencer;
#X obj 293 147 modules/midi-in;
#X connect 2 0 3 0;
#X connect 3 0 1 0;
#X connect 3 0 0 0;
#X connect 3 1 0 1;
#X connect 4 0 5 0;
#X connect 5 0 2 0;
